<svg width="14" height="17" viewBox="0 0 14 17" fill="none" xmlns="http://www.w3.org/2000/svg">
<path fill-rule="evenodd" clip-rule="evenodd" d="M6.83505 0C5.70788 0 4.62688 0.447767 3.82985 1.2448C3.03282 2.04183 2.58505 3.12283 2.58505 4.25C2.58505 5.37717 3.03282 6.45817 3.82985 7.2552C4.62688 8.05223 5.70788 8.5 6.83505 8.5C7.96222 8.5 9.04323 8.05223 9.84026 7.2552C10.6373 6.45817 11.0851 5.37717 11.0851 4.25C11.0851 3.12283 10.6373 2.04183 9.84026 1.2448C9.04323 0.447767 7.96222 0 6.83505 0ZM4.28505 9.35C2.8715 9.35 1.51235 9.9943 0.715904 10.965C0.312154 11.458 0.0274038 12.0675 0.00275382 12.7432C-0.0227462 13.4334 0.226304 14.1066 0.740554 14.694C1.99175 16.1262 3.9901 17 6.83505 17C9.68 17 11.6784 16.1262 12.9296 14.694C13.4438 14.1066 13.6929 13.4334 13.6674 12.7432C13.6419 12.0675 13.3588 11.458 12.9534 10.965C12.1586 9.996 10.7995 9.35 9.38505 9.35H4.28505Z" fill="#F6BE00"/>
</svg>
