<svg width="21" height="14" viewBox="0 0 21 14" fill="none" xmlns="http://www.w3.org/2000/svg">
<path d="M1.65158 13.5236H0.526183C0.447354 13.5236 0.369589 13.5054 0.298935 13.4705C0.22828 13.4355 0.166641 13.3847 0.11881 13.3221C0.0709791 13.2594 0.0382449 13.1866 0.0231531 13.1092C0.00806126 13.0318 0.0110185 12.952 0.0317948 12.876L0.67682 10.5107V5.21582L1.49854 5.58103V10.4651L2.14663 12.878C2.16705 12.9539 2.16973 13.0335 2.15444 13.1107C2.13916 13.1878 2.10633 13.2604 2.05849 13.3229C2.01065 13.3853 1.94908 13.4359 1.87856 13.4707C1.80804 13.5055 1.73023 13.5236 1.65158 13.5236Z" fill="#F6BE00"/>
<path d="M10.6077 9.6976C10.5424 9.72642 10.4719 9.74131 10.4005 9.74131C10.3292 9.74131 10.2587 9.72642 10.1934 9.6976L4.35249 7.11859L1.49958 5.86335L0.677865 5.49836L0.310687 5.34072C-0.0991867 5.16512 -0.104879 4.58622 0.30171 4.40252L0.655094 4.24291L10.1936 0.0434598C10.2588 0.0147636 10.3292 -3.76257e-05 10.4004 7.18286e-08C10.4717 3.77694e-05 10.5421 0.0149134 10.6072 0.0436786L20.4945 4.41106C20.9027 4.59126 20.9016 5.17082 20.4928 5.3497L16.4488 7.11881L10.6077 9.6976Z" fill="#F6BE00"/>
<path d="M10.2119 13.6172L3.40804 10.9254C3.30764 10.8853 3.22236 10.8147 3.16419 10.7236C3.10602 10.6325 3.07789 10.5254 3.08377 10.4174C3.13632 9.41224 3.40037 8.53776 3.82711 7.82617L10.4004 10.7019L16.9507 7.82617C17.3989 8.53907 17.6654 9.39713 17.7175 10.4172C17.7233 10.5252 17.6951 10.6322 17.637 10.7233C17.5788 10.8144 17.4936 10.885 17.3932 10.9252L10.5889 13.6172C10.4678 13.6651 10.333 13.6651 10.2119 13.6172Z" fill="#F6BE00"/>
</svg>
