<svg width="23" height="23" viewBox="0 0 23 23" fill="none" xmlns="http://www.w3.org/2000/svg">
<g clip-path="url(#clip0_269_264)">
<path d="M22.5184 11.7955L15.1998 19.1141C14.9337 19.3802 14.5022 19.3802 14.2362 19.1141C13.9701 18.848 13.9701 18.4166 14.2362 18.1505L20.3914 11.9952L1.33647 11.9952C1.14829 11.9951 0.977966 11.9189 0.854643 11.7956C0.731319 11.6723 0.655084 11.5019 0.655039 11.3138C0.655039 10.9374 0.960134 10.6323 1.33649 10.6323L20.3915 10.6323L14.2362 4.47694C13.9701 4.21084 13.9701 3.77938 14.2362 3.51328C14.5022 3.24719 14.9337 3.24719 15.1998 3.51328L22.5184 10.8319C22.7845 11.098 22.7845 11.5294 22.5184 11.7955Z" fill="white"/>
</g>
<defs>
<clipPath id="clip0_269_264">
<rect width="16" height="16" fill="white" transform="translate(11.6865) rotate(45)"/>
</clipPath>
</defs>
</svg>
