<svg width="20" height="20" viewBox="0 0 20 20" fill="none" xmlns="http://www.w3.org/2000/svg">
<mask id="mask0_269_490" style="mask-type:luminance" maskUnits="userSpaceOnUse" x="0" y="0" width="20" height="20">
<path d="M0 0H20V20H0V0Z" fill="white"/>
</mask>
<g mask="url(#mask0_269_490)">
<path d="M13.7497 4.99967V14.583C13.7497 16.4247 12.258 17.9163 10.4163 17.9163C8.57467 17.9163 7.08301 16.4247 7.08301 14.583V4.16634C7.08301 3.61381 7.3025 3.0839 7.6932 2.6932C8.0839 2.3025 8.61381 2.08301 9.16634 2.08301C9.71888 2.08301 10.2488 2.3025 10.6395 2.6932C11.0302 3.0839 11.2497 3.61381 11.2497 4.16634V12.9163C11.2497 13.3747 10.8747 13.7497 10.4163 13.7497C9.95801 13.7497 9.58301 13.3747 9.58301 12.9163V4.99967H8.33301V12.9163C8.33301 13.4689 8.5525 13.9988 8.9432 14.3895C9.3339 14.7802 9.86381 14.9997 10.4163 14.9997C10.9689 14.9997 11.4988 14.7802 11.8895 14.3895C12.2802 13.9988 12.4997 13.4689 12.4997 12.9163V4.16634C12.4997 2.32467 11.008 0.833008 9.16634 0.833008C7.32467 0.833008 5.83301 2.32467 5.83301 4.16634V14.583C5.83301 17.1163 7.88301 19.1663 10.4163 19.1663C12.9497 19.1663 14.9997 17.1163 14.9997 14.583V4.99967H13.7497Z" fill="white"/>
</g>
</svg>
