<svg width="16" height="18" viewBox="0 0 16 18" fill="none" xmlns="http://www.w3.org/2000/svg">
<path d="M15.0313 12.6847C14.4718 12.2127 14.0222 11.6242 13.714 10.9602C13.4058 10.2963 13.2465 9.57299 13.2471 8.841V6.75C13.2471 4.11075 11.2866 1.926 8.74706 1.56V0.75C8.74706 0.551088 8.66805 0.360322 8.52739 0.21967C8.38674 0.0790176 8.19597 0 7.99706 0C7.79815 0 7.60738 0.0790176 7.46673 0.21967C7.32608 0.360322 7.24706 0.551088 7.24706 0.75V1.56C4.70681 1.926 2.74706 4.11075 2.74706 6.75V8.841C2.74735 9.57448 2.58719 10.2991 2.2778 10.9642C1.96841 11.6292 1.51728 12.2185 0.956062 12.6908C0.753231 12.8656 0.608664 13.0982 0.541721 13.3575C0.474777 13.6168 0.488653 13.8904 0.58149 14.1415C0.674327 14.3927 0.841692 14.6095 1.06117 14.763C1.28066 14.9164 1.54177 14.9991 1.80956 15H14.1846C14.9083 15 15.4971 14.4113 15.4971 13.6875C15.4971 13.3035 15.3298 12.9405 15.0313 12.6847ZM7.99706 18C8.64508 17.9991 9.27297 17.7748 9.77491 17.365C10.2768 16.9551 10.6221 16.3848 10.7526 15.75H5.24156C5.37199 16.3848 5.71728 16.9551 6.21921 17.365C6.72115 17.7748 7.34905 17.9991 7.99706 18Z" fill="#D7D7D7"/>
</svg>
