<svg width="24" height="24" viewBox="0 0 24 24" fill="none" xmlns="http://www.w3.org/2000/svg">
<path d="M17.499 7H12.499V4.4185C12.8593 4.3121 13.1756 4.09222 13.4008 3.79159C13.626 3.49096 13.7481 3.12564 13.749 2.75C13.749 2.28587 13.5646 1.84075 13.2365 1.51256C12.9083 1.18437 12.4632 1 11.999 1C11.5349 1 11.0898 1.18437 10.7616 1.51256C10.4334 1.84075 10.249 2.28587 10.249 2.75C10.2499 3.12564 10.372 3.49096 10.5973 3.79159C10.8225 4.09222 11.1388 4.3121 11.499 4.4185V7H6.49902C5.70337 7 4.94031 7.31607 4.3777 7.87868C3.81509 8.44129 3.49902 9.20435 3.49902 10V19.5C3.49902 20.2956 3.81509 21.0587 4.3777 21.6213C4.94031 22.1839 5.70337 22.5 6.49902 22.5H17.499C18.2947 22.5 19.0577 22.1839 19.6203 21.6213C20.183 21.0587 20.499 20.2956 20.499 19.5V10C20.499 9.20435 20.183 8.44129 19.6203 7.87868C19.0577 7.31607 18.2947 7 17.499 7ZM6.99902 12.75C6.99902 12.2859 7.1834 11.8408 7.51159 11.5126C7.83978 11.1844 8.28489 11 8.74902 11C9.21315 11 9.65827 11.1844 9.98646 11.5126C10.3146 11.8408 10.499 12.2859 10.499 12.75C10.499 13.2141 10.3146 13.6592 9.98646 13.9874C9.65827 14.3156 9.21315 14.5 8.74902 14.5C8.28489 14.5 7.83978 14.3156 7.51159 13.9874C7.1834 13.6592 6.99902 13.2141 6.99902 12.75ZM15.2275 18.2245C14.24 18.732 13.1235 19 11.999 19C10.8745 19 9.75802 18.732 8.77052 18.2245C8.65692 18.1614 8.5723 18.0567 8.53454 17.9323C8.49679 17.808 8.50887 17.6739 8.56822 17.5583C8.62757 17.4427 8.72954 17.3547 8.85258 17.313C8.97562 17.2712 9.11008 17.2789 9.22752 17.3345C10.945 18.2175 13.053 18.2175 14.7705 17.3345C14.8875 17.2824 15.02 17.277 15.1409 17.3196C15.2617 17.3621 15.3616 17.4493 15.4201 17.5633C15.4786 17.6772 15.4913 17.8092 15.4555 17.9322C15.4196 18.0552 15.3381 18.1598 15.2275 18.2245ZM15.249 14.5C15.0192 14.5 14.7916 14.4547 14.5793 14.3668C14.367 14.2788 14.1741 14.1499 14.0116 13.9874C13.8491 13.8249 13.7202 13.632 13.6322 13.4197C13.5443 13.2074 13.499 12.9798 13.499 12.75C13.499 12.5202 13.5443 12.2926 13.6322 12.0803C13.7202 11.868 13.8491 11.6751 14.0116 11.5126C14.1741 11.3501 14.367 11.2212 14.5793 11.1332C14.7916 11.0453 15.0192 11 15.249 11C15.7132 11 16.1583 11.1844 16.4865 11.5126C16.8146 11.8408 16.999 12.2859 16.999 12.75C16.999 13.2141 16.8146 13.6592 16.4865 13.9874C16.1583 14.3156 15.7132 14.5 15.249 14.5Z" fill="#F6BE00"/>
<path d="M15.249 13.5C15.6632 13.5 15.999 13.1642 15.999 12.75C15.999 12.3358 15.6632 12 15.249 12C14.8348 12 14.499 12.3358 14.499 12.75C14.499 13.1642 14.8348 13.5 15.249 13.5Z" fill="#F6BE00"/>
<path d="M8.74902 13.5C9.16324 13.5 9.49902 13.1642 9.49902 12.75C9.49902 12.3358 9.16324 12 8.74902 12C8.33481 12 7.99902 12.3358 7.99902 12.75C7.99902 13.1642 8.33481 13.5 8.74902 13.5Z" fill="#F6BE00"/>
<path d="M21.999 11.5H21.499V18H21.999C22.3968 18 22.7784 17.842 23.0597 17.5607C23.341 17.2794 23.499 16.8978 23.499 16.5V13C23.499 12.6022 23.341 12.2206 23.0597 11.9393C22.7784 11.658 22.3968 11.5 21.999 11.5ZM2.49902 11.5H1.99902C1.6012 11.5 1.21967 11.658 0.938363 11.9393C0.657059 12.2206 0.499023 12.6022 0.499023 13V16.5C0.499023 16.8978 0.657059 17.2794 0.938363 17.5607C1.21967 17.842 1.6012 18 1.99902 18H2.49902V11.5Z" fill="#F6BE00"/>
</svg>
