<svg width="20" height="20" viewBox="0 0 20 20" fill="none" xmlns="http://www.w3.org/2000/svg">
<path d="M0.36986 7.51906C0.263981 7.56142 0.172693 7.63364 0.107097 7.72693C0.0415009 7.82021 0.00442277 7.93055 0.000371554 8.04452C-0.00367967 8.15849 0.0254706 8.27117 0.0842774 8.36888C0.143084 8.46659 0.229014 8.54511 0.331617 8.59488L7.22802 11.9395L19.1678 0L0.36986 7.51906ZM8.06029 12.7719L11.405 19.6683C11.4548 19.7709 11.5333 19.8569 11.631 19.9157C11.7287 19.9745 11.8414 20.0037 11.9554 19.9996C12.0694 19.9956 12.1797 19.9585 12.273 19.8929C12.3663 19.8273 12.4385 19.736 12.4809 19.6301L20.0001 0.832191L8.06029 12.7719Z" fill="#F6BE00"/>
</svg>
